HIERARCHY
ROOT Hips
{
    OFFSET   0.000000   0.000000   0.000000
    CHANNELS 6 Xposition Yposition Zposition Zrotation Xrotation Yrotation
    JOINT Chest
    {
        OFFSET   0.000000   8.007230   0.000000
        CHANNELS 3 Zrotation Xrotation Yrotation
        JOINT Chest2
        {
            OFFSET   0.000000  22.077100   0.000000
            CHANNELS 3 Zrotation Xrotation Yrotation
            JOINT Neck
            {
                OFFSET   0.000000  23.254800  -0.000021
                CHANNELS 3 Zrotation Xrotation Yrotation
                JOINT Head
                {
                    OFFSET   0.000000  14.370000   1.956610
                    CHANNELS 3 Zrotation Xrotation Yrotation
                    End Site
                    {
                        OFFSET   0.000000  19.566000   0.000000
                    }
                }
            }
            JOINT LeftCollar
            {
                OFFSET   3.911900  19.017000  -0.467063
                CHANNELS 3 Zrotation Xrotation Yrotation
                JOINT LeftShoulder
                {
                    OFFSET  10.383700   0.000000   0.000000
                    CHANNELS 3 Zrotation Xrotation Yrotation
                    JOINT LeftElbow
                    {
                        OFFSET  26.662100   0.001529   0.000325
                        CHANNELS 3 Zrotation Xrotation Yrotation
                        JOINT LeftWrist
                        {
                            OFFSET  28.869000  -0.000011  -0.000096
                            CHANNELS 3 Zrotation Xrotation Yrotation
                            JOINT LeftFinger0
                            {
                                OFFSET   2.044650  -2.323460   3.252850
                                CHANNELS 3 Zrotation Xrotation Yrotation
                                JOINT LeftFinger01
                                {
                                    OFFSET   3.088130   0.000000   0.000000
                                    CHANNELS 3 Zrotation Xrotation Yrotation
                                    JOINT LeftFinger02
                                    {
                                        OFFSET   2.639460   0.000000   0.000000
                                        CHANNELS 3 Zrotation Xrotation Yrotation
                                        End Site
                                        {
                                            OFFSET   2.582190   0.000000   0.000000
                                        }
                                    }
                                }
                            }
                            JOINT LeftFinger1
                            {
                                OFFSET   8.364480   0.000000   3.252850
                                CHANNELS 3 Zrotation Xrotation Yrotation
                                JOINT LeftFinger11
                                {
                                    OFFSET   4.646930   0.000000   0.000000
                                    CHANNELS 3 Zrotation Xrotation Yrotation
                                    JOINT LeftFinger12
                                    {
                                        OFFSET   2.323460   0.000000   0.000000
                                        CHANNELS 3 Zrotation Xrotation Yrotation
                                        End Site
                                        {
                                            OFFSET   2.273050   0.000000   0.000000
                                        }
                                    }
                                }
                            }
                            JOINT LeftFinger2
                            {
                                OFFSET   8.364480   0.000016   1.078090
                                CHANNELS 3 Zrotation Xrotation Yrotation
                                JOINT LeftFinger21
                                {
                                    OFFSET   5.111620   0.000000   0.000000
                                    CHANNELS 3 Zrotation Xrotation Yrotation
                                    JOINT LeftFinger22
                                    {
                                        OFFSET   2.788160   0.000017   0.000000
                                        CHANNELS 3 Zrotation Xrotation Yrotation
                                        End Site
                                        {
                                            OFFSET   2.727660   0.000000   0.000000
                                        }
                                    }
                                }
                            }
                            JOINT LeftFinger3
                            {
                                OFFSET   7.899780   0.000015  -1.078090
                                CHANNELS 3 Zrotation Xrotation Yrotation
                                JOINT LeftFinger31
                                {
                                    OFFSET   4.646920   0.000000   0.000000
                                    CHANNELS 3 Zrotation Xrotation Yrotation
                                    JOINT LeftFinger32
                                    {
                                        OFFSET   2.323470   0.000000   0.000000
                                        CHANNELS 3 Zrotation Xrotation Yrotation
                                        End Site
                                        {
                                            OFFSET   2.273050   0.000000   0.000000
                                        }
                                    }
                                }
                            }
                            JOINT LeftFinger4
                            {
                                OFFSET   7.435090   0.000000  -3.252850
                                CHANNELS 3 Zrotation Xrotation Yrotation
                                JOINT LeftFinger41
                                {
                                    OFFSET   3.717550   0.000000   0.000000
                                    CHANNELS 3 Zrotation Xrotation Yrotation
                                    JOINT LeftFinger42
                                    {
                                        OFFSET   1.858760   0.000000   0.000000
                                        CHANNELS 3 Zrotation Xrotation Yrotation
                                        End Site
                                        {
                                            OFFSET   1.818440   0.000000   0.000000
                                        }
                                    }
                                }
                            }
                        }
                    }
                }
            }
            JOINT RightCollar
            {
                OFFSET  -3.911900  19.017000  -0.467062
                CHANNELS 3 Zrotation Xrotation Yrotation
                JOINT RightShoulder
                {
                    OFFSET -10.383700   0.000015   0.000000
                    CHANNELS 3 Zrotation Xrotation Yrotation
                    JOINT RightElbow
                    {
                        OFFSET -26.662100   0.001341   0.000385
                        CHANNELS 3 Zrotation Xrotation Yrotation
                        JOINT RightWrist
                        {
                            OFFSET -28.869000   0.000025  -0.000080
                            CHANNELS 3 Zrotation Xrotation Yrotation
                            JOINT RightFinger0
                            {
                                OFFSET  -2.044650  -2.323490   3.252850
                                CHANNELS 3 Zrotation Xrotation Yrotation
                                JOINT RightFinger01
                                {
                                    OFFSET  -3.088130   0.000000   0.000000
                                    CHANNELS 3 Zrotation Xrotation Yrotation
                                    JOINT RightFinger02
                                    {
                                        OFFSET  -2.639460   0.000000   0.000000
                                        CHANNELS 3 Zrotation Xrotation Yrotation
                                        End Site
                                        {
                                            OFFSET  -2.582190   0.000000   0.000000
                                        }
                                    }
                                }
                            }
                            JOINT RightFinger1
                            {
                                OFFSET  -8.364480   0.000000   3.252850
                                CHANNELS 3 Zrotation Xrotation Yrotation
                                JOINT RightFinger11
                                {
                                    OFFSET  -4.646930   0.000000   0.000000
                                    CHANNELS 3 Zrotation Xrotation Yrotation
                                    JOINT RightFinger12
                                    {
                                        OFFSET  -2.323470   0.000000   0.000000
                                        CHANNELS 3 Zrotation Xrotation Yrotation
                                        End Site
                                        {
                                            OFFSET  -2.273050   0.000000   0.000000
                                        }
                                    }
                                }
                            }
                            JOINT RightFinger2
                            {
                                OFFSET  -8.364480   0.000000   1.078090
                                CHANNELS 3 Zrotation Xrotation Yrotation
                                JOINT RightFinger21
                                {
                                    OFFSET  -5.111610   0.000000   0.000000
                                    CHANNELS 3 Zrotation Xrotation Yrotation
                                    JOINT RightFinger22
                                    {
                                        OFFSET  -2.788160   0.000000   0.000000
                                        CHANNELS 3 Zrotation Xrotation Yrotation
                                        End Site
                                        {
                                            OFFSET  -2.727660   0.000000   0.000000
                                        }
                                    }
                                }
                            }
                            JOINT RightFinger3
                            {
                                OFFSET  -7.899780   0.000000  -1.078090
                                CHANNELS 3 Zrotation Xrotation Yrotation
                                JOINT RightFinger31
                                {
                                    OFFSET  -4.646920   0.000000   0.000000
                                    CHANNELS 3 Zrotation Xrotation Yrotation
                                    JOINT RightFinger32
                                    {
                                        OFFSET  -2.323470   0.000000   0.000000
                                        CHANNELS 3 Zrotation Xrotation Yrotation
                                        End Site
                                        {
                                            OFFSET  -2.273050   0.000000   0.000000
                                        }
                                    }
                                }
                            }
                            JOINT RightFinger4
                            {
                                OFFSET  -7.435090   0.000000  -3.252850
                                CHANNELS 3 Zrotation Xrotation Yrotation
                                JOINT RightFinger41
                                {
                                    OFFSET  -3.717550   0.000000   0.000000
                                    CHANNELS 3 Zrotation Xrotation Yrotation
                                    JOINT RightFinger42
                                    {
                                        OFFSET  -1.858770   0.000000   0.000000
                                        CHANNELS 3 Zrotation Xrotation Yrotation
                                        End Site
                                        {
                                            OFFSET  -1.818440   0.000000   0.000000
                                        }
                                    }
                                }
                            }
                        }
                    }
                }
            }
        }
    }
    JOINT LeftHip
    {
        OFFSET   9.783010   0.000000   0.000000
        CHANNELS 3 Zrotation Xrotation Yrotation
        JOINT LeftKnee
        {
            OFFSET   0.000070 -41.789100   0.000028
            CHANNELS 3 Zrotation Xrotation Yrotation
            JOINT LeftAnkle
            {
                OFFSET   0.000087 -41.133200  -0.000100
                CHANNELS 3 Zrotation Xrotation Yrotation
                JOINT LeftToe
                {
                    OFFSET   0.000000  -6.358960  14.674500
                    CHANNELS 3 Zrotation Xrotation Yrotation
                    End Site
                    {
                        OFFSET   0.000000   0.000000   3.913200
                    }
                }
            }
        }
    }
    JOINT RightHip
    {
        OFFSET  -9.783020   0.000000   0.000000
        CHANNELS 3 Zrotation Xrotation Yrotation
        JOINT RightKnee
        {
            OFFSET   0.000044 -41.789100  -0.000870
            CHANNELS 3 Zrotation Xrotation Yrotation
            JOINT RightAnkle
            {
                OFFSET  -0.000090 -41.133200  -0.000245
                CHANNELS 3 Zrotation Xrotation Yrotation
                JOINT RightToe
                {
                    OFFSET   0.000000  -6.358960  14.674500
                    CHANNELS 3 Zrotation Xrotation Yrotation
                    End Site
                    {
                        OFFSET   0.000000   0.000000   3.913200
                    }
                }
            }
        }
    }
}
MOTION
Frames: 5
Frame Time:   0.016667
  0.045958  90.055900  -0.020165  -1.776040  -4.081020  -2.201010   0.130952   3.659250  -0.318301   0.283186   7.317670  -0.646990   1.460550  -0.798388   0.028880   2.399460  -1.602560   4.558050  -6.341090  -1.177410   4.637640 -68.580600  23.053700   4.283310  -5.354080 -10.636700 -18.718000  20.465100  -8.316190  10.780800  37.969500  28.052400 -66.959400 -25.879800   0.007643   0.003786  -7.939900   0.006307  -0.001241 -36.648300  11.269700 -14.710800 -31.179600   0.001895   0.001392 -21.825700   0.001896   0.002189 -32.173300  -2.707090   4.303100 -48.412300   0.010619   0.008286 -32.242600   0.002742   0.008506 -28.647300  -2.435250   4.461940 -39.910100   0.001644  -0.000808 -26.580100   0.000326  -0.000601 -35.213300  -2.929640   4.153220 -52.978800  -0.000175  -0.000943 -35.283900   0.001517  -0.000574  10.768400   0.724577   7.787700  67.200300  14.306000  -2.481190   1.804210  -4.104390  14.142800 -22.017700 -18.368600  -1.418550 -34.084500  28.127200  65.099300  33.805700  -0.006542  -0.001922  11.917100  -0.000155  -0.009154  43.392000   6.804930   7.143850  35.850500  -0.000711   0.005554  25.858900   0.004720   0.004616  33.048700  -1.636440  -2.514060  49.627400   0.013859  -0.002550  33.051800   0.006392  -0.002656  42.397600  -2.022160  -2.215760  54.425100  -0.003683  -0.004960  37.989500  -0.000633  -0.002931  51.838300  -5.263610  -4.120850  78.042000   0.000721   0.002863  51.976000   0.008885  -0.007058   0.879808   4.427890   3.254910  -0.322573   0.848001  16.200300  -3.382030  -3.590310   6.721520   0.000000   0.000000  -0.000000   3.891460   2.662730  -6.320670  -1.602260   3.182690  -8.661990 -10.381300   0.662492   4.647510   0.000000   0.000000   0.000000
  0.045828  90.055800  -0.031610  -1.777300  -4.098690  -2.211700   0.131170   3.673620  -0.313828   0.283498   7.346460  -0.638108   1.444540  -0.792133   0.028869   2.372450  -1.595910   4.576000  -6.331670  -1.177370   4.638650 -68.592100  23.056200   4.271570  -5.364310 -10.641200 -18.730500  20.485700  -8.309620  10.780400  37.964700  28.046400 -66.956900 -25.888500   0.007624   0.003773  -7.944280   0.006299  -0.001209 -36.669500  11.270100 -14.701800 -31.196200   0.001892   0.001372 -21.837300   0.001875   0.002162 -32.184500  -2.706230   4.301700 -48.428900   0.010632   0.008295 -32.253600   0.002728   0.008517 -28.647200  -2.434490   4.461110 -39.930200   0.001653  -0.000814 -26.593500   0.000309  -0.000606 -35.223300  -2.928740   4.151980 -52.993700  -0.000148  -0.000918 -35.293800   0.001519  -0.000553  10.770000   0.724268   7.777790  67.194000  14.294200  -2.481090   1.810500  -4.095870  14.155500 -22.008700 -18.351600  -1.425320 -34.082000  28.125800  65.094700  33.809700  -0.006546  -0.001901  11.917200  -0.000155  -0.009147  43.381700   6.795030   7.136150  35.841200  -0.000729   0.005548  25.850100   0.004721   0.004610  33.044600  -1.636440  -2.514060  49.620900   0.013858  -0.002536  33.047500   0.006392  -0.002638  42.380900  -2.022160  -2.215760  54.425100  -0.003683  -0.004949  37.985200  -0.000634  -0.002924  51.833500  -5.263840  -4.120830  78.035000   0.000721   0.002837  51.971300   0.008900  -0.007051   0.879004   4.434700   3.254870  -0.322477   0.851271  16.208100  -3.382790  -3.586270   6.721510  -0.000000   0.000000   0.000000   3.892440   2.667660  -6.330980  -1.612430   3.190990  -8.656660 -10.374700   0.662281   4.670630   0.000000   0.000000  -0.000000
  0.045610  90.055800  -0.050854  -1.779390  -4.129050  -2.228130   0.131244   3.698490  -0.306272   0.283228   7.396270  -0.623002   1.426170  -0.782471   0.028847   2.344000  -1.584060   4.608800  -6.316370  -1.177330   4.642740 -68.605300  23.071900   4.243360  -5.385900 -10.666400 -18.744400  20.522000  -8.290300  10.779000  37.953700  28.034400 -66.953900 -25.902100   0.007582   0.003751  -7.951050   0.006280  -0.001133 -36.702800  11.270700 -14.687700 -31.222200   0.001882   0.001314 -21.855500   0.001821   0.002096 -32.200700  -2.705360   4.300310 -48.453000   0.010665   0.008317 -32.269700   0.002694   0.008541 -28.647000  -2.433740   4.460280 -39.963600   0.001674  -0.000830 -26.615800   0.000267  -0.000619 -35.233200  -2.927840   4.150740 -53.008500  -0.000099  -0.000863 -35.303700   0.001535  -0.000501  10.776000   0.723967   7.763200  67.184600  14.282400  -2.481030   1.820240  -4.087270  14.172800 -21.992600 -18.334600  -1.432080 -34.079500  28.124300  65.090100  33.816900  -0.006555  -0.001860  11.917200  -0.000152  -0.009131  43.371500   6.785120   7.128450  35.831900  -0.000768   0.005532  25.841400   0.004722   0.004593  33.040400  -1.636440  -2.514060  49.614500   0.013856  -0.002497  33.043300   0.006391  -0.002591  42.364300  -2.022160  -2.215760  54.425100  -0.003684  -0.004922  37.980200  -0.000634  -0.002908  51.828700  -5.264070  -4.120780  78.027900   0.000721   0.002774  51.966600   0.008938  -0.007033   0.877737   4.442680   3.254770  -0.322135   0.859960  16.221300  -3.383940  -3.578850   6.721470  -0.000000   0.000000  -0.000000   3.894280   2.677120  -6.348720  -1.628050   3.204130  -8.648900 -10.363400   0.662054   4.709420  -0.000000   0.000000   0.000000
  0.045383  90.055700  -0.066657  -1.781000  -4.154520  -2.238280   0.127579   3.719910  -0.300083   0.275519   7.439140  -0.610386   1.423430  -0.776675   0.028825   2.342340  -1.573140   4.640970  -6.305810  -1.177360   4.649850 -68.601600  23.118500   4.210530  -5.416580 -10.732600 -18.744500  20.548900  -8.255830  10.753500  37.936400  28.016600 -66.954700 -25.912500   0.007527   0.003735  -7.956260   0.006250  -0.001015 -36.726100  11.271100 -14.677900 -31.240300   0.001866   0.001217 -21.868200   0.001739   0.001994 -32.207900  -2.713910   4.305980 -48.464700   0.010714   0.008351 -32.277500   0.002642   0.008579 -28.645800  -2.441330   4.466440 -39.997200   0.001705  -0.000852 -26.638200   0.000201  -0.000638 -35.231900  -2.936850   4.155710 -53.007800  -0.000055  -0.000786 -35.303200   0.001583  -0.000412  10.788200   0.726553   7.757020  67.180600  14.297300  -2.481280   1.825700  -4.090930  14.176400 -21.978700 -18.342000  -1.431210 -34.063400  28.114600  65.105600  33.825900  -0.006565  -0.001804  11.917100  -0.000138  -0.009111  43.375600   6.785750   7.128860  35.835200  -0.000815   0.005510  25.844500   0.004720   0.004569  33.045600  -1.632040  -2.506650  49.625400   0.013853  -0.002433  33.048400   0.006391  -0.002517  42.372000  -2.016660  -2.209120  54.425100  -0.003686  -0.004880  37.979600  -0.000635  -0.002883  51.838100  -5.263380  -4.120710  78.041600   0.000724   0.002680  51.975700   0.008997  -0.007005   0.876522   4.443450   3.254610  -0.321214   0.878375  16.233200  -3.384160  -3.572070   6.721400   0.000000   0.000000   0.000000   3.896190   2.687270  -6.363910  -1.637030   3.212110  -8.646180 -10.354800   0.662438   4.741400   0.000000   0.000000  -0.000000
  0.045245  90.055600  -0.082554  -1.782680  -4.182550  -2.246870   0.121519   3.743230  -0.293648   0.263145   7.485790  -0.597192   1.423040  -0.771125   0.028797   2.342100  -1.560990   4.676860  -6.294010  -1.177410   4.662410 -68.595600  23.181900   4.152100  -5.443110 -10.803000 -18.720100  20.582400  -8.215630  10.716100  37.920700  28.004700 -66.955900 -25.918200   0.007462   0.003714  -7.959080   0.006215  -0.000888 -36.744600  11.271500 -14.670100 -31.254700   0.001846   0.001098 -21.878300   0.001637   0.001867 -32.212300  -2.722660   4.311650 -48.472200   0.010774   0.008393 -32.282500   0.002577   0.008625 -28.644700  -2.448930   4.472610 -40.017300   0.001743  -0.000880 -26.651600   0.000126  -0.000662 -35.228000  -2.945860   4.162510 -53.002700  -0.000000  -0.000704 -35.299800   0.001624  -0.000323  10.802800   0.729140   7.750230  67.176900  14.327800  -2.481710   1.831310  -4.101400  14.180200 -21.962800 -18.352000  -1.424760 -34.044600  28.102400  65.128200  33.831600  -0.006576  -0.001750  11.915800  -0.000119  -0.009083  43.379000   6.790160   7.131770  35.838500  -0.000875   0.005483  25.847700   0.004716   0.004539  33.051300  -1.620520  -2.488200  49.636300   0.013849  -0.002354  33.053500   0.006390  -0.002420  42.380300  -2.002290  -2.192800  54.425000  -0.003686  -0.004827  37.979300  -0.000635  -0.002854  51.847600  -5.261860  -4.120610  78.055300   0.000730   0.002573  51.984800   0.009072  -0.006970   0.875710   4.444230   3.254430  -0.320614   0.891349  16.244400  -3.383910  -3.563350   6.721310  -0.000000   0.000000   0.000000   3.898680   2.699090  -6.380110  -1.645890   3.221350  -8.642640 -10.344000   0.663128   4.772990   0.000000   0.000000   0.000000
